<?xml version="1.0" encoding="utf-8"?>
<svg version="1.1" xmlns:xlink="http://www.w3.org/1999/xlink" width="50px" height="50px" xmlns="http://www.w3.org/2000/svg">
  <g transform="matrix(1 0 0 1 -1050 -1115 )">
    <path d="M 36.8815104166667 29.78515625  C 37.2938368055556 30.1974826388889  37.5 30.6857638888889  37.5 31.25  C 37.5 31.8142361111111  37.2938368055556 32.3025173611111  36.8815104166667 32.71484375  C 36.4691840277778 33.1271701388889  35.9809027777778 33.3333333333333  35.4166666666667 33  L 14.5833333333333 33  C 14.0190972222222 33.3333333333333  13.5308159722222 33.1271701388889  13.1184895833333 32.71484375  C 12.7061631944444 32.3025173611111  12.5 31.8142361111111  12.5 31.25  C 12.5 30.6857638888889  12.7061631944444 30.1974826388889  13.1184895833333 29.78515625  C 13.5308159722222 29.3728298611111  14.0190972222222 29.1666666666667  14.5833333333333 29  L 35.4166666666667 29  C 35.9809027777778 29.1666666666667  36.4691840277778 29.3728298611111  36.8815104166667 29.78515625  Z M 19.6126302083333 13.720703125  C 20.4264322916667 14.5345052083333  20.8333333333333 15.5164930555556  20.8333333333333 16.6666666666667  C 20.8333333333333 17.8168402777778  20.4264322916667 18.798828125  19.6126302083333 19.6126302083333  C 18.798828125 20.4264322916667  17.8168402777778 20.8333333333333  16.6666666666667 20.8333333333333  C 15.5164930555556 20.8333333333333  14.5345052083333 20.4264322916667  13.720703125 19.6126302083333  C 12.9069010416667 18.798828125  12.5 17.8168402777778  12.5 16.6666666666667  C 12.5 15.5164930555556  12.9069010416667 14.5345052083333  13.720703125 13.720703125  C 14.5345052083333 12.9069010416667  15.5164930555556 12.5  16.6666666666667 12.5  C 17.8168402777778 12.5  18.798828125 12.9069010416667  19.6126302083333 13.720703125  Z M 36.279296875 13.720703125  C 37.0930989583333 14.5345052083333  37.5 15.5164930555556  37.5 16.6666666666667  C 37.5 17.8168402777778  37.0930989583333 18.798828125  36.279296875 19.6126302083333  C 35.4654947916667 20.4264322916667  34.4835069444445 20.8333333333333  33.3333333333333 20.8333333333333  C 32.1831597222222 20.8333333333333  31.201171875 20.4264322916667  30.3873697916667 19.6126302083333  C 29.5735677083333 18.798828125  29.1666666666667 17.8168402777778  29.1666666666667 16.6666666666667  C 29.1666666666667 15.5164930555556  29.5735677083333 14.5345052083333  30.3873697916667 13.720703125  C 31.201171875 12.9069010416667  32.1831597222222 12.5  33.3333333333333 12.5  C 34.4835069444445 12.5  35.4654947916667 12.9069010416667  36.279296875 13.720703125  Z M 44.1731770833333 33.0891927083333  C 45.2799479166667 30.517578125  45.8333333333333 27.8211805555556  45.8333333333333 25  C 45.8333333333333 22.1788194444444  45.2799479166667 19.482421875  44.1731770833333 16.9108072916667  C 43.06640625 14.3391927083333  41.5852864583333 12.1256510416667  39.7298177083333 10.2701822916667  C 37.8743489583333 8.41471354166667  35.6608072916667 6.93359375  33.0891927083333 5.82682291666667  C 30.517578125 4.72005208333333  27.8211805555556 4.16666666666667  25 4.16666666666667  C 22.1788194444444 4.16666666666667  19.482421875 4.72005208333333  16.9108072916667 5.82682291666667  C 14.3391927083333 6.93359375  12.1256510416667 8.41471354166667  10.2701822916667 10.2701822916667  C 8.41471354166667 12.1256510416667  6.93359375 14.3391927083333  5.82682291666667 16.9108072916667  C 4.72005208333333 19.482421875  4.16666666666667 22.1788194444444  4.16666666666667 25  C 4.16666666666667 27.8211805555556  4.72005208333333 30.517578125  5.82682291666667 33.0891927083333  C 6.93359375 35.6608072916667  8.41471354166667 37.8743489583333  10.2701822916667 39.7298177083333  C 12.1256510416667 41.5852864583333  14.3391927083333 43.06640625  16.9108072916667 44.1731770833333  C 19.482421875 45.2799479166667  22.1788194444444 45.8333333333333  25 45.8333333333333  C 27.8211805555556 45.8333333333333  30.517578125 45.2799479166667  33.0891927083333 44.1731770833333  C 35.6608072916667 43.06640625  37.8743489583333 41.5852864583333  39.7298177083333 39.7298177083333  C 41.5852864583333 37.8743489583333  43.06640625 35.6608072916667  44.1731770833333 33.0891927083333  Z M 46.6471354166667 12.451171875  C 48.8823784722222 16.2814670138889  50 20.4644097222222  50 25  C 50 29.5355902777778  48.8823784722222 33.7185329861111  46.6471354166667 37.548828125  C 44.4118923611111 41.3791232638889  41.3791232638889 44.4118923611111  37.548828125 46.6471354166667  C 33.7185329861111 48.8823784722222  29.5355902777778 50  25 50  C 20.4644097222222 50  16.2814670138889 48.8823784722222  12.451171875 46.6471354166667  C 8.62087673611111 44.4118923611111  5.58810763888889 41.3791232638889  3.35286458333333 37.548828125  C 1.11762152777778 33.7185329861111  0 29.5355902777778  0 25  C 0 20.4644097222222  1.11762152777778 16.2814670138889  3.35286458333333 12.451171875  C 5.58810763888889 8.62087673611111  8.62087673611111 5.58810763888888  12.451171875 3.35286458333333  C 16.2814670138889 1.11762152777777  20.4644097222222 0  25 0  C 29.5355902777778 0  33.7185329861111 1.11762152777777  37.548828125 3.35286458333333  C 41.3791232638889 5.58810763888888  44.4118923611111 8.62087673611111  46.6471354166667 12.451171875  Z " fill-rule="nonzero" fill="#b8741a" stroke="none" transform="matrix(1 0 0 1 1050 1115 )" />
  </g>
</svg>